<?xml version="1.0" encoding="UTF-8" standalone="no"?>
<!-- Created with Inkscape (http://www.inkscape.org/) -->

<svg
   width="240.97156mm"
   height="62.204376mm"
   viewBox="0 0 240.97156 62.204376"
   version="1.1"
   id="svg1"
   xml:space="preserve"
   inkscape:version="1.4.2 (ebf0e940d0, 2025-05-08)"
   sodipodi:docname="gorge2.svg"
   xmlns:inkscape="http://www.inkscape.org/namespaces/inkscape"
   xmlns:sodipodi="http://sodipodi.sourceforge.net/DTD/sodipodi-0.dtd"
   xmlns="http://www.w3.org/2000/svg"
   xmlns:svg="http://www.w3.org/2000/svg"><sodipodi:namedview
     id="namedview1"
     pagecolor="#ffffff"
     bordercolor="#000000"
     borderopacity="0.25"
     inkscape:showpageshadow="2"
     inkscape:pageopacity="0.0"
     inkscape:pagecheckerboard="0"
     inkscape:deskcolor="#d1d1d1"
     inkscape:document-units="mm"
     inkscape:zoom="0.125"
     inkscape:cx="-1396"
     inkscape:cy="364"
     inkscape:window-width="2518"
     inkscape:window-height="1343"
     inkscape:window-x="0"
     inkscape:window-y="0"
     inkscape:window-maximized="1"
     inkscape:current-layer="layer1"><inkscape:page
       x="8.3634826e-16"
       y="0"
       width="240.97154"
       height="62.204376"
       id="page2"
       margin="0"
       bleed="0" /></sodipodi:namedview><defs
     id="defs1"><linearGradient
       id="swatch55"
       inkscape:swatch="solid"><stop
         style="stop-color:#ffffff;stop-opacity:1;"
         offset="0"
         id="stop55" /></linearGradient><linearGradient
       id="swatch47"
       inkscape:swatch="solid"><stop
         style="stop-color:#ffffff;stop-opacity:1;"
         offset="0"
         id="stop47" /></linearGradient></defs><g
     inkscape:label="Layer 1"
     inkscape:groupmode="layer"
     id="layer1"
     transform="translate(5.5271661,-285.77914)"><path
       style="fill:#ffffff;fill-opacity:1;fill-rule:nonzero;stroke:#ff0000;stroke-width:6;stroke-linecap:round;stroke-linejoin:miter;stroke-miterlimit:3;stroke-dasharray:none;stroke-dashoffset:0;stroke-opacity:0.996078;paint-order:markers stroke fill"
       d="m 179.10748,300.2877 -0.30516,8.73842 c 0,0 -18.72253,-3.86069 -20.21596,-3.71793 -1.65286,0.15802 -13.42488,5.56772 -15.26969,8.21583 -1.09559,1.57266 0.59184,10.40122 1.70387,11.38882 1.22706,1.08978 11.71015,3.6977 13.01049,3.0782 1.16965,-0.55725 1.71603,-10.8514 1.71603,-10.8514 l 18.48497,8.21725 -8.29817,18.64262 -34.1818,-10.08613 -8.19471,-20.12291 c 0,0 13.28296,-18.25891 16.01491,-19.90706 3.74989,-2.26225 35.53522,6.40429 35.53522,6.40429 z"
       id="path7-2-7-3-4"
       sodipodi:nodetypes="ccsssscccccsc"
       inkscape:export-filename="gorgeengine1.png"
       inkscape:export-xdpi="96"
       inkscape:export-ydpi="96" /><path
       id="path5-1-9-1-3"
       style="fill:#ffffff;fill-opacity:1;fill-rule:nonzero;stroke:#ff0000;stroke-width:6;stroke-linecap:round;stroke-linejoin:miter;stroke-miterlimit:3;stroke-dasharray:none;stroke-dashoffset:0;stroke-opacity:0.996078;paint-order:markers stroke fill"
       d="m 129.54289,292.234 c -3.05071,-0.40525 -32.182618,4.7569 -32.182618,4.7569 l 1.937414,26.66984 1.229614,14.31439 c 0,0 11.14252,2.74979 12.51255,1.95612 1.48188,-0.85847 -1.17545,-17.15413 -1.17545,-17.15413 0.18087,-1.6222 4.67148,-1.96186 6.0939,-2.03649 1.34379,-0.0705 5.88727,23.67047 7.69343,23.22148 l 21.68097,-5.3896 -20.15386,-18.92312 c -2.98304,-2.80087 9.88229,-10.23319 13.34681,-14.26672 0,0 -7.57172,-12.69556 -10.98276,-13.14867 z m -4.00707,7.03971 c 2.33088,1.23696 4.90056,4.92864 4.90056,4.92864 l -5.89264,5.75004 c -0.75127,0.73308 -13.15649,3.708 -14.37792,2.80987 -1.17812,-0.8663 -2.10607,-8.45487 -1.33546,-9.75577 0.56178,-0.94839 15.02604,-4.62401 16.70546,-3.73278 z"
       sodipodi:nodetypes="scccsssscscsscssss" /><path
       id="path4-2-2-9-0"
       style="fill:#ffffff;fill-opacity:1;fill-rule:nonzero;stroke:#ff0000;stroke-width:6;stroke-linecap:round;stroke-linejoin:miter;stroke-miterlimit:3;stroke-dasharray:none;stroke-dashoffset:0;stroke-opacity:0.996078;paint-order:markers stroke fill"
       d="m 68.464492,292.75111 c -2.81113,0.68574 -15.03713,11.6666 -15.03713,11.6666 l -2.31104,21.00269 c 0,0 5.69414,12.38715 7.8534,13.32636 3.61811,1.57374 21.06214,6.29097 25.92185,5.20783 5.34265,-1.19077 11.87074,-11.34642 11.87074,-11.34642 l 5.070738,-17.89486 -4.503438,-14.78648 c 0,0 -24.96636,-8.12676 -28.86512,-7.17572 z m 10.29785,13.78223 c 0.71172,1.06759 -1.19855,3.34684 -0.0179,3.84919 1.23932,0.52732 1.57014,-2.5916 2.89829,-2.81527 1.9576,-0.32969 4.9182,0.59455 5.39537,2.5215 0.30842,1.24548 -2.89336,1.91904 -2.32375,3.06876 0.53516,1.08019 2.70991,-0.7848 3.61644,0.01 1.2157,1.06557 1.6459,3.53391 0.64857,4.80619 -0.50865,0.64885 -2.10866,-0.48215 -2.45925,0.26407 -0.42654,0.90781 1.4993,1.51841 1.66255,2.50808 0.14271,0.86511 -0.0379,1.93823 -0.67218,2.54307 -0.92812,0.8843 -3.44985,-0.44156 -3.7613,0.80198 -0.16811,0.67118 1.52804,0.64919 1.58645,1.33866 0.11687,1.37901 -1.31716,2.9178 -2.67734,3.17334 -0.93947,0.1765 -1.68845,-1.84509 -2.51864,-1.37121 -0.74254,0.42383 0.47914,1.92494 -0.0895,2.5634 -0.8416,0.94488 -2.61144,1.11433 -3.75316,0.56882 -0.99571,-0.47577 -0.56699,-2.86661 -1.67051,-2.8583 -0.74455,0.006 -0.39616,1.69659 -1.098,1.94523 -1.20499,0.42687 -3.01754,-0.25407 -3.56718,-1.40825 -0.31212,-0.65544 1.08367,-1.49022 0.6559,-2.07676 -0.75611,-1.03679 -2.81455,0.74058 -3.8496,-0.0179 -0.83289,-0.61036 -1.0436,-1.92151 -0.94682,-2.94955 0.0571,-0.60571 1.17403,-1.07483 0.87238,-1.60317 -0.44317,-0.77621 -2.0702,0.56012 -2.67979,-0.0936 -1.11325,-1.19383 -0.92702,-3.68615 0.17091,-4.89408 0.47696,-0.52474 1.63236,0.24845 2.10932,-0.27629 0.26143,-0.28762 0.2251,-0.82318 0.0407,-1.16533 -0.33848,-0.62804 -1.69634,-0.41244 -1.82776,-1.11367 -0.3953,-2.10932 1.81618,-4.65119 3.91186,-5.11339 1.13742,-0.25086 2.02963,2.09873 3.09359,1.62473 0.83564,-0.37228 0.006,-2.03695 0.67627,-2.65984 1.63013,-1.51556 5.33946,-3.0222 6.57412,-1.1702 z"
       sodipodi:nodetypes="sccsscccssssssssssssssssssssssssssssssssss" /><path
       d="m 211.8415,294.35004 c 0,0 -16.17668,-1.00762 -22.09026,3.53532 -6.16063,4.73269 -11.69068,14.33669 -12.84668,16.34968 -1.78534,3.10892 0.19044,16.98396 1.92803,18.80351 1.64073,1.71811 15.62022,10.64098 18.22506,11.59071 2.57616,0.93929 15.62195,-0.28676 15.62195,-0.28676 l 17.74151,-14.67097 -7.17345,-4.77307 c 0,0 -12.53038,10.95051 -16.51686,10.95051 -3.7953,0 -13.80175,-11.7942 -13.80175,-11.7942 l 32.29755,-5.97856 2.42133,-11.97612 z m -4.44085,8.75494 7.02043,8.64353 -23.65004,3.91252 0.23285,-6.66816 4.66928,-3.06757 z"
       style="fill:#ffffff;stroke:#ff0000;stroke-width:6;stroke-linecap:round;stroke-miterlimit:3;stroke-dasharray:none;stroke-dashoffset:0;stroke-opacity:0.996078;paint-order:markers stroke fill"
       id="path55-2-4-7"
       sodipodi:nodetypes="csssscccscccccccccc" /><path
       style="fill:#ffffff;fill-opacity:1;fill-rule:nonzero;stroke:#ff0000;stroke-width:6;stroke-linecap:round;stroke-linejoin:miter;stroke-miterlimit:3;stroke-dasharray:none;stroke-dashoffset:0;stroke-opacity:0.996078;paint-order:markers stroke fill"
       d="m 42.344202,289.17997 c 0,0 -26.81582,-1.45207 -32.9528294,1.17162 -2.6995496,1.1541 -11.7887096,19.14952 -11.9139196,24.98284 -0.17947,8.36233 5.48166,25.00593 10.1547,28.41582 3.025829,2.20794 40.111829,-4.52404 40.111829,-4.52404 l 6.74469,-26.55329 -24.35563,3.62793 6.87635,7.59358 -18.52432,2.8234 -5.04066,-14.75041 7.16697,-11.52668 22.53516,-0.24135 z"
       id="path1-9-5-7-8"
       sodipodi:nodetypes="csssccccccccc" /></g></svg>
